<?xml version="1.0" encoding="UTF-8" standalone="no"?>
<!DOCTYPE svg PUBLIC "-//W3C//DTD SVG 1.1//EN" "http://www.w3.org/Graphics/SVG/1.1/DTD/svg11.dtd">
<svg width="100%" height="100%" viewBox="0 0 176 140" version="1.1" xmlns="http://www.w3.org/2000/svg" xmlns:xlink="http://www.w3.org/1999/xlink" xml:space="preserve" xmlns:serif="http://www.serif.com/" style="fill-rule:evenodd;clip-rule:evenodd;stroke-linejoin:round;stroke-miterlimit:2;">
    <g transform="matrix(1,0,0,1,-8.756422,-27.276593)">
        <g>
            <path d="M131.994,65.109C131.39,76.453 127.797,89.751 120.808,104.192C103.228,140.53 69.393,165.084 45.673,156.242C27.504,149.489 24.337,124.304 33.821,94.78L55.04,88.409C53.174,91.145 51.406,94.095 49.756,97.228C37.822,119.872 37.012,143.515 47.93,150.037C58.849,156.57 77.373,143.506 89.293,120.873C98.306,103.783 100.977,86.141 97.063,75.7L131.994,65.109Z" style="fill:rgb(211,64,52);"/>
            <path d="M184.511,49.221C184.464,49.414 184.419,49.606 184.372,49.793C163.981,128.27 87.911,182.207 42.079,162.918C17.554,152.582 8.455,129.996 8.764,102.392L26.991,96.855C20.698,125.33 26,149.313 44.308,157.596C70.156,169.283 110.834,138.837 130.152,99.339C136.799,85.727 141.154,73.041 143.076,61.761L184.511,49.221Z" style="fill:rgb(211,64,52);"/>
            <path d="M53.628,72.166C72.263,51.169 98.638,37.194 111.289,48.823L122.057,34.208C101.619,16.132 69.526,36.022 49.663,63.82L53.628,72.166Z" style="fill:rgb(211,64,52);"/>
            <path d="M58.896,83.202C69.826,69.6 82.728,63.043 91.125,68.059C92.566,68.917 93.797,70.078 94.842,71.501L107.241,54.476C95.494,42.461 71.341,55.387 54.527,74.056L58.896,83.202Z" style="fill:rgb(211,64,52);"/>
        </g>
    </g>
</svg>
